<?xml version="1.0" encoding="utf-8"?>
<!-- Svg Vector Icons : http://www.onlinewebfonts.com/icon -->
<!DOCTYPE svg PUBLIC "-//W3C//DTD SVG 1.1//EN" "http://www.w3.org/Graphics/SVG/1.1/DTD/svg11.dtd">
<svg version="1.1" xmlns="http://www.w3.org/2000/svg" xmlns:xlink="http://www.w3.org/1999/xlink" x="0px" y="0px" viewBox="0 0 256 256" enable-background="new 0 0 256 256" xml:space="preserve">
<metadata> Svg Vector Icons : http://www.onlinewebfonts.com/icon </metadata>
<g><g><path fill="#000000" d="M13.7,11.1v233.7V11.1z"/><path fill="#000000" d="M17.3,11.1v233.7V11.1z"/><path fill="#000000" d="M21,11.1v233.7V11.1z"/><path fill="#000000" d="M24.6,11.1v233.7V11.1z"/><path fill="#000000" d="M28.3,11.1v233.7V11.1z"/><path fill="#000000" d="M31.9,11.1v233.7V11.1z"/><path fill="#000000" d="M35.6,11.1v233.7V11.1z"/><path fill="#000000" d="M39.2,11.1v233.7V11.1z"/><path fill="#000000" d="M42.9,11.1v233.7V11.1z"/><path fill="#000000" d="M46.5,11.1v233.7V11.1z"/><path fill="#000000" d="M50.2,11.1v233.7V11.1z"/><path fill="#000000" d="M53.8,11.1v233.7V11.1z"/><path fill="#000000" d="M57.5,11.1v233.7V11.1z"/><path fill="#000000" d="M61.1,11.1v233.7V11.1z"/><path fill="#000000" d="M64.8,11.1v233.7V11.1z"/><path fill="#000000" d="M68.4,11.1v233.7V11.1z"/><path fill="#000000" d="M72.1,11.1v233.7V11.1z"/><path fill="#000000" d="M75.7,11.1v233.7V11.1z"/><path fill="#000000" d="M79.4,11.1v233.7V11.1z"/><path fill="#000000" d="M83,11.1v233.7V11.1z"/><path fill="#000000" d="M86.7,11.1v233.7V11.1z"/><path fill="#000000" d="M90.3,11.1v233.7V11.1z"/><path fill="#000000" d="M94,11.1v233.7V11.1z"/><path fill="#000000" d="M97.6,11.1v233.7V11.1z"/><path fill="#000000" d="M101.3,11.1v233.7V11.1z"/><path fill="#000000" d="M105,11.1v233.7V11.1z"/><path fill="#000000" d="M108.6,11.1v233.7V11.1z"/><path fill="#000000" d="M112.3,11.1v233.7V11.1z"/><path fill="#000000" d="M115.9,11.1v233.7V11.1z"/><path fill="#000000" d="M119.5,11.1v233.7V11.1z"/><path fill="#000000" d="M123.2,11.1v233.7V11.1z"/><path fill="#000000" d="M126.9,11.1v233.7V11.1z"/><path fill="#000000" d="M130.5,11.1v233.7V11.1z"/><path fill="#000000" d="M134.2,11.1v233.7V11.1z"/><path fill="#000000" d="M137.8,11.1v233.7V11.1z"/><path fill="#000000" d="M141.5,11.1v233.7V11.1z"/><path fill="#000000" d="M145.1,11.1v233.7V11.1z"/><path fill="#000000" d="M148.8,11.1v233.7V11.1z"/><path fill="#000000" d="M152.4,11.1v233.7V11.1z"/><path fill="#000000" d="M156.1,11.1v233.7V11.1z"/><path fill="#000000" d="M159.7,11.1v233.7V11.1z"/><path fill="#000000" d="M163.4,11.1v233.7V11.1z"/><path fill="#000000" d="M167,11.1v233.7V11.1z"/><path fill="#000000" d="M170.7,11.1v233.7V11.1z"/><path fill="#000000" d="M174.3,11.1v233.7V11.1z"/><path fill="#000000" d="M178,11.1v233.7V11.1z"/><path fill="#000000" d="M181.6,11.1v233.7V11.1z"/><path fill="#000000" d="M185.3,11.1v233.7V11.1z"/><path fill="#000000" d="M189,11.1v233.7V11.1z"/><path fill="#000000" d="M192.6,11.1v233.7V11.1z"/><path fill="#000000" d="M196.2,11.1v233.7V11.1z"/><path fill="#000000" d="M199.9,11.1v233.7V11.1z"/><path fill="#000000" d="M203.5,11.1v233.7V11.1z"/><path fill="#000000" d="M207.2,11.1v233.7V11.1z"/><path fill="#000000" d="M210.8,11.1v233.7V11.1z"/><path fill="#000000" d="M214.5,11.1v233.7V11.1z"/><path fill="#000000" d="M218.2,11.1v233.7V11.1z"/><path fill="#000000" d="M221.8,11.1v233.7V11.1z"/><path fill="#000000" d="M225.5,11.1v233.7V11.1z"/><path fill="#000000" d="M229.1,11.1v233.7V11.1z"/><path fill="#000000" d="M232.8,11.1v233.7V11.1z"/><path fill="#000000" d="M236.4,11.1v233.7V11.1z"/><path fill="#000000" d="M240.1,11.1v233.7V11.1z"/><path fill="#000000" d="M243.7,11.1v233.7V11.1z"/><path fill="#000000" d="M10,14.8h236H10z"/><path fill="#000000" d="M10,18.5h236H10z"/><path fill="#000000" d="M10,22.1h236H10z"/><path fill="#000000" d="M10,25.8h236H10z"/><path fill="#000000" d="M10,29.4h236H10z"/><path fill="#000000" d="M10,33.1h236H10z"/><path fill="#000000" d="M10,36.7h236H10z"/><path fill="#000000" d="M10,40.4h236H10z"/><path fill="#000000" d="M10,44h236H10z"/><path fill="#000000" d="M10,47.7h236H10z"/><path fill="#000000" d="M10,51.3h236H10z"/><path fill="#000000" d="M10,55h236H10z"/><path fill="#000000" d="M10,58.6h236H10z"/><path fill="#000000" d="M10,62.3h236H10z"/><path fill="#000000" d="M10,65.9h236H10z"/><path fill="#000000" d="M10,69.6h236H10z"/><path fill="#000000" d="M10,73.2h236H10z"/><path fill="#000000" d="M10,76.9h236H10z"/><path fill="#000000" d="M10,80.5h236H10z"/><path fill="#000000" d="M10,84.2h236H10z"/><path fill="#000000" d="M10,87.8h236H10z"/><path fill="#000000" d="M10,91.5h236H10z"/><path fill="#000000" d="M10,95.1h236H10z"/><path fill="#000000" d="M10,98.8h236H10z"/><path fill="#000000" d="M10,102.5h236H10z"/><path fill="#000000" d="M10,106.1h236H10z"/><path fill="#000000" d="M10,109.8h236H10z"/><path fill="#000000" d="M10,113.4h236H10z"/><path fill="#000000" d="M10,117.1h236H10z"/><path fill="#000000" d="M10,120.7h236H10z"/><path fill="#000000" d="M10,124.4h236H10z"/><path fill="#000000" d="M10,128h236H10z"/><path fill="#000000" d="M10,131.7h236H10z"/><path fill="#000000" d="M10,135.3h236H10z"/><path fill="#000000" d="M10,139h236H10z"/><path fill="#000000" d="M10,142.6h236H10z"/><path fill="#000000" d="M10,146.3h236H10z"/><path fill="#000000" d="M10,149.9h236H10z"/><path fill="#000000" d="M10,153.6h236H10z"/><path fill="#000000" d="M10,157.2h236H10z"/><path fill="#000000" d="M10,160.9h236H10z"/><path fill="#000000" d="M10,164.5h236H10z"/><path fill="#000000" d="M10,168.2h236H10z"/><path fill="#000000" d="M10,171.8h236H10z"/><path fill="#000000" d="M10,175.5h236H10z"/><path fill="#000000" d="M10,179.1h236H10z"/><path fill="#000000" d="M10,182.8h236H10z"/><path fill="#000000" d="M10,186.4h236H10z"/><path fill="#000000" d="M10,190.1h236H10z"/><path fill="#000000" d="M10,193.8h236H10z"/><path fill="#000000" d="M10,197.4h236H10z"/><path fill="#000000" d="M10,201.1h236H10z"/><path fill="#000000" d="M10,204.7h236H10z"/><path fill="#000000" d="M10,208.3h236H10z"/><path fill="#000000" d="M10,212h236H10z"/><path fill="#000000" d="M10,215.6h236H10z"/><path fill="#000000" d="M10,219.3h236H10z"/><path fill="#000000" d="M10,223h236H10z"/><path fill="#000000" d="M10,226.6h236H10z"/><path fill="#000000" d="M10,230.3h236H10z"/><path fill="#000000" d="M10,233.9h236H10z"/><path fill="#000000" d="M10,237.6h236H10z"/><path fill="#000000" d="M10,241.2h236H10z"/><path fill="#000000" d="M126.4,135.6c-27.8,0-50.4-22.6-50.4-50.4c0-27.8,22.6-50.4,50.4-50.4c27.8,0,50.4,22.6,50.4,50.4C176.8,112.9,154.2,135.6,126.4,135.6z M126.4,42.2c-23.7,0-43,19.3-43,43c0,23.7,19.3,43,43,43c23.7,0,43-19.3,43-43C169.4,61.4,150.1,42.2,126.4,42.2z"/><path fill="#000000" d="M212.5,221.3c-2,0-3.7-1.7-3.7-3.7c0-44.5-36.2-80.7-80.7-80.7c-44.5,0-80.7,36.2-80.7,80.7c0,2-1.7,3.7-3.7,3.7c-2.1,0-3.7-1.7-3.7-3.7c0-48.6,39.6-88.2,88.2-88.2s88.2,39.6,88.2,88.2C216.2,219.7,214.5,221.3,212.5,221.3L212.5,221.3z"/></g></g>
</svg>